<svg xmlns="http://www.w3.org/2000/svg" height="800" width="1200" version="1.0" viewBox="-23.4132 -14.034 202.9144 84.204"><path d="M0 26.5c0 16.712 13.657 29.636 29.671 29.636 16.012 0 29.671-12.924 29.671-29.636C59.342 11.173 48.674 0 36.86 0c-2.686 0-5.329.58-7.189 1.345C27.81.58 25.164 0 22.483 0 10.666 0 0 11.173 0 26.5m34.957-7.694c0 3.246-2.143 5.804-5.285 5.804-3.14 0-5.285-2.558-5.285-5.804 0-4.426 3.008-8.354 5.285-9.705 2.278 1.352 5.285 5.279 5.285 9.705zM7.295 26.358c0-11.534 8.323-19.415 14.864-19.122-3.1 3.088-4.978 7.587-4.978 11.937 0 7.489 5.942 12.74 12.49 12.74 6.545 0 12.491-5.251 12.491-12.74 0-4.35-1.878-8.849-4.978-11.937 6.541-.293 14.865 7.588 14.865 19.122 0 12.627-10.132 22.479-22.377 22.479-12.246-.001-22.377-9.852-22.377-22.479z" fill="#007BC2"/><path fill="#231F20" d="M86.898 12.172v5.867h3.277v10.789l-8.802-16.656H71.214v5.867h3.276V35.99h-3.276v5.864H84.65V35.99h-3.277V25.2l8.802 16.654h6.883V18.039h3.275v-5.867H86.898m41.351 11.4V12.171h-25.838v11.401h5.866v-5.534h3.157v17.951h-4.285v5.861h16.363v-5.861h-4.286V18.038h3.159v5.534h5.864m27.839 0V12.171h-25.835v11.401h5.862v-5.534h3.158v17.951h-4.284v5.861h16.359v-5.861h-4.282V18.038h3.156v5.534h5.866"/></svg>